<svg width="300" height="1114" viewBox="0 0 637 1114" fill="none" xmlns="http://www.w3.org/2000/svg">
<path d="M-77.3266 0.744141C315.9 0.744141 634.673 334.068 634.673 745.244C658.62 1306.49 395.005 1121.08 226.875 880.36C226.13 879.293 225.203 878.385 224.098 877.698C58.5968 774.797 -411.827 1080.55 -411.827 670.745C-411.827 259.569 -462.251 -16.2559 -77.3266 0.744141Z" fill="#3B45C3"/>
<path d="M-77.3266 0.744141C315.9 0.744141 634.673 334.068 634.673 745.244C658.62 1306.49 395.005 1121.08 226.875 880.36C226.13 879.293 225.203 878.385 224.098 877.698C58.5968 774.797 -411.827 1080.55 -411.827 670.745C-411.827 259.569 -462.251 -16.2559 -77.3266 0.744141Z" fill="#3B45C3"/>
<path d="M-77.3266 0.744141C315.9 0.744141 634.673 334.068 634.673 745.244C658.62 1306.49 395.005 1121.08 226.875 880.36C226.13 879.293 225.203 878.385 224.098 877.698C58.5968 774.797 -411.827 1080.55 -411.827 670.745C-411.827 259.569 -462.251 -16.2559 -77.3266 0.744141Z" fill="#3B45C3"/>
<path d="M-77.3266 0.744141C315.9 0.744141 634.673 334.068 634.673 745.244C658.62 1306.49 395.005 1121.08 226.875 880.36C226.13 879.293 225.203 878.385 224.098 877.698C58.5968 774.797 -411.827 1080.55 -411.827 670.745C-411.827 259.569 -462.251 -16.2559 -77.3266 0.744141Z" fill="#768AFF"/>
</svg>
